<?xml version="1.0" standalone="no"?>
<!DOCTYPE svg PUBLIC "-//W3C//DTD SVG 20010904//EN"
 "http://www.w3.org/TR/2001/REC-SVG-20010904/DTD/svg10.dtd">
<svg version="1.0" xmlns="http://www.w3.org/2000/svg"
 width="1449.000000pt" height="1449.000000pt" viewBox="0 0 1449.000000 1449.000000"
 preserveAspectRatio="xMidYMid meet">
<metadata>
Created by potrace 1.11, written by Peter Selinger 2001-2013
</metadata>
<g transform="translate(0.000000,1449.000000) scale(0.100000,-0.100000)"
fill="#000000" stroke="none">
<path d="M6850 14362 c-223 -1 -368 -6 -374 -12 -6 -6 -47 -10 -92 -10 -46 0
-85 -4 -88 -8 -3 -5 -33 -10 -68 -11 -34 -1 -65 -6 -68 -10 -3 -4 -25 -8 -50
-10 -24 -1 -47 -5 -50 -10 -3 -4 -25 -8 -50 -10 -25 -1 -49 -7 -55 -12 -5 -5
-28 -9 -52 -9 -24 0 -43 -4 -43 -8 0 -5 -21 -9 -47 -11 -26 -1 -50 -6 -53 -10
-3 -4 -39 -9 -80 -10 -41 -1 -77 -6 -80 -9 -3 -4 -16 -9 -30 -11 -14 -1 -27
-6 -30 -10 -3 -4 -21 -8 -40 -9 -19 -2 -38 -8 -42 -15 -4 -7 -8 -9 -8 -4 0 4
-16 0 -36 -8 -20 -8 -45 -15 -55 -15 -11 0 -19 -4 -19 -8 0 -4 -17 -9 -37 -10
-21 -2 -40 -6 -43 -10 -3 -5 -16 -9 -30 -10 -14 0 -26 -6 -28 -12 -2 -5 -14
-10 -26 -10 -13 0 -26 -3 -30 -7 -4 -4 -19 -9 -34 -11 -15 -2 -29 -6 -32 -10
-3 -4 -21 -9 -40 -11 -19 -1 -39 -6 -45 -10 -5 -4 -23 -8 -40 -10 -16 -2 -31
-7 -33 -12 -2 -5 -12 -9 -23 -9 -10 0 -19 -5 -19 -11 0 -6 -6 -9 -13 -6 -8 3
-27 -1 -43 -8 -39 -17 -66 -27 -83 -31 -8 -1 -18 -9 -22 -16 -5 -7 -9 -10 -9
-5 0 4 -16 1 -35 -7 -19 -8 -35 -13 -35 -10 0 3 -7 -2 -16 -10 -8 -9 -25 -16
-38 -16 -12 0 -27 -5 -34 -12 -7 -7 -12 -9 -12 -5 0 4 -13 1 -30 -8 -16 -8
-38 -15 -50 -15 -11 0 -20 -4 -20 -10 0 -5 -6 -10 -14 -10 -17 0 -100 -42
-104 -53 -2 -4 -7 -5 -12 -2 -5 3 -15 -2 -24 -11 -9 -8 -20 -12 -26 -9 -5 3
-10 2 -10 -4 0 -6 -11 -13 -25 -17 -14 -3 -25 -10 -25 -15 0 -5 -9 -9 -20 -9
-11 0 -20 -5 -20 -12 0 -6 -3 -9 -6 -5 -7 7 -86 -22 -95 -36 -3 -5 -10 -9 -15
-9 -5 0 -26 -9 -46 -19 -21 -11 -38 -17 -38 -13 0 3 -7 -2 -16 -10 -8 -9 -19
-14 -24 -11 -4 3 -10 -1 -13 -8 -5 -14 -72 -50 -83 -45 -3 2 -10 -5 -15 -14
-6 -10 -16 -18 -24 -18 -16 0 -99 -42 -103 -53 -2 -4 -8 -5 -12 -2 -5 3 -19
-4 -32 -17 -12 -12 -29 -23 -36 -25 -8 -1 -23 -11 -34 -22 -10 -12 -23 -19
-29 -16 -5 4 -9 2 -9 -4 0 -5 -10 -13 -22 -17 -13 -4 -30 -14 -38 -23 -8 -9
-22 -17 -30 -19 -8 -2 -17 -7 -20 -10 -3 -4 -12 -8 -20 -10 -8 -2 -25 -14 -36
-28 -12 -13 -26 -24 -33 -24 -6 0 -19 -8 -29 -18 -10 -10 -40 -29 -66 -42 -26
-12 -50 -29 -53 -36 -3 -8 -13 -14 -22 -14 -9 0 -24 -9 -34 -20 -9 -11 -22
-20 -29 -20 -7 0 -29 -17 -49 -38 -20 -20 -42 -38 -50 -40 -8 -2 -19 -9 -24
-16 -6 -7 -20 -16 -32 -20 -12 -4 -37 -24 -56 -44 -18 -20 -40 -38 -48 -40 -7
-2 -35 -25 -61 -52 -26 -26 -49 -46 -52 -43 -3 3 -25 -14 -50 -38 -24 -24 -50
-45 -57 -47 -8 -2 -43 -32 -78 -68 -36 -35 -69 -64 -74 -64 -13 0 -634 -621
-639 -638 -2 -7 -37 -48 -78 -90 -42 -42 -87 -94 -100 -114 -14 -21 -28 -38
-32 -38 -5 0 -8 -6 -8 -14 0 -7 -11 -25 -25 -40 -14 -15 -25 -31 -25 -35 0 -4
-23 -31 -50 -60 -28 -28 -48 -56 -45 -61 3 -6 1 -10 -4 -10 -6 0 -11 -6 -11
-14 0 -7 -18 -31 -39 -52 -22 -22 -41 -46 -43 -54 -2 -8 -11 -22 -20 -31 -9
-8 -18 -21 -20 -28 -2 -7 -18 -28 -35 -47 -18 -19 -33 -39 -33 -46 0 -6 -7
-16 -14 -22 -8 -6 -16 -18 -18 -26 -2 -8 -9 -21 -16 -28 -7 -8 -10 -17 -7 -22
3 -5 1 -10 -4 -12 -5 -1 -11 -10 -13 -18 -2 -8 -13 -25 -25 -38 -13 -12 -23
-27 -23 -33 0 -5 -12 -21 -27 -35 -16 -14 -28 -29 -28 -32 0 -17 -28 -72 -37
-72 -5 0 -7 -4 -4 -9 3 -5 -1 -14 -9 -21 -14 -11 -66 -110 -67 -127 -1 -4 -7
-12 -15 -18 -15 -11 -203 -383 -203 -401 0 -7 -7 -15 -16 -18 -8 -3 -13 -10
-10 -15 3 -5 -1 -14 -9 -21 -7 -6 -11 -18 -8 -26 3 -8 1 -14 -4 -14 -9 0 -38
-62 -35 -74 1 -3 -9 -26 -23 -50 -13 -24 -21 -46 -18 -50 4 -3 1 -6 -5 -6 -7
0 -12 -11 -12 -24 0 -14 -7 -32 -16 -40 -8 -9 -13 -16 -10 -16 3 0 -3 -16 -14
-35 -11 -20 -20 -42 -20 -50 0 -8 -11 -34 -24 -57 -13 -24 -21 -48 -19 -55 2
-6 -1 -14 -6 -18 -6 -3 -11 -21 -11 -39 0 -17 -4 -36 -9 -41 -5 -6 -11 -21
-13 -35 -1 -14 -10 -30 -18 -37 -8 -7 -12 -13 -8 -13 4 0 -1 -16 -12 -35 -11
-20 -20 -44 -20 -55 0 -10 -4 -22 -10 -25 -5 -3 -10 -17 -10 -30 0 -13 -5 -27
-10 -30 -6 -3 -10 -16 -10 -28 0 -12 -7 -31 -15 -41 -8 -10 -12 -23 -9 -28 3
-5 1 -14 -4 -21 -6 -7 -11 -30 -13 -52 -1 -22 -6 -44 -10 -50 -4 -5 -8 -28
-10 -50 -1 -22 -6 -44 -9 -50 -4 -5 -12 -30 -19 -55 -7 -25 -17 -54 -22 -65
-5 -11 -10 -35 -11 -52 -1 -18 -6 -33 -10 -33 -4 0 -8 -15 -8 -33 0 -18 -4
-37 -9 -42 -6 -6 -11 -29 -12 -53 -2 -24 -7 -46 -11 -48 -4 -3 -8 -20 -8 -38
0 -17 -4 -36 -10 -42 -5 -5 -10 -24 -12 -42 -1 -19 -6 -36 -10 -38 -4 -3 -8
-33 -8 -68 0 -34 -4 -66 -9 -71 -6 -6 -11 -55 -12 -110 -1 -55 -5 -104 -9
-110 -5 -5 -9 -28 -11 -50 -1 -22 -6 -45 -10 -50 -4 -6 -9 -53 -10 -104 -1
-68 -5 -94 -15 -98 -8 -3 -11 -9 -8 -14 3 -5 -2 -9 -10 -9 -14 0 -16 -64 -16
-609 l0 -610 24 -26 c20 -21 26 -41 30 -98 15 -189 18 -217 26 -217 8 0 13
-46 26 -252 3 -49 9 -88 13 -88 3 0 8 -12 9 -27 1 -16 7 -29 12 -31 6 -2 10
-30 10 -63 0 -33 4 -59 10 -59 6 0 10 -15 10 -34 0 -19 4 -37 8 -40 5 -3 9
-19 10 -36 0 -16 4 -35 9 -42 4 -7 9 -22 10 -33 3 -22 21 -90 33 -120 4 -11
13 -33 19 -48 6 -15 11 -39 11 -52 0 -13 5 -27 10 -30 6 -3 10 -30 10 -59 0
-29 3 -56 7 -60 4 -3 8 -16 10 -28 2 -12 8 -28 15 -35 6 -7 8 -16 5 -20 -3 -3
0 -18 9 -34 8 -16 12 -29 8 -29 -3 0 1 -12 11 -26 9 -14 14 -28 11 -31 -3 -3
1 -18 8 -32 17 -31 28 -59 33 -86 2 -10 9 -22 15 -27 7 -4 9 -10 5 -14 -3 -4
0 -19 7 -33 17 -34 36 -93 36 -114 0 -9 5 -17 10 -17 6 0 10 -12 10 -26 0 -14
9 -39 20 -54 11 -16 19 -32 18 -37 -4 -13 25 -83 35 -83 4 0 6 -4 3 -9 -3 -5
1 -14 9 -21 8 -7 15 -21 15 -31 0 -11 5 -19 11 -19 6 0 9 -6 6 -14 -3 -8 1
-17 9 -20 9 -3 13 -10 10 -15 -4 -5 1 -16 9 -24 8 -9 15 -25 15 -36 0 -12 5
-30 10 -41 6 -11 15 -29 20 -40 6 -12 8 -25 5 -30 -4 -6 -2 -10 4 -10 5 0 13
-9 16 -21 4 -12 16 -30 26 -40 10 -10 19 -26 19 -34 0 -8 4 -15 9 -15 5 0 8
-12 8 -26 0 -15 5 -29 11 -33 13 -8 54 -101 44 -101 -3 0 3 -7 15 -15 11 -8
24 -27 28 -42 3 -15 15 -39 26 -55 11 -15 18 -28 14 -28 -3 0 5 -11 19 -24 15
-13 26 -31 26 -40 0 -9 5 -16 11 -16 5 0 8 -4 4 -9 -3 -5 2 -16 10 -24 8 -9
15 -23 15 -31 0 -9 5 -16 11 -16 6 0 9 -6 6 -12 -2 -7 4 -20 14 -29 10 -8 19
-21 21 -28 2 -8 13 -25 25 -39 13 -14 23 -29 23 -34 0 -5 9 -18 20 -30 11 -12
20 -28 20 -35 0 -7 5 -13 11 -13 5 0 8 -4 4 -9 -3 -6 3 -18 14 -28 11 -10 21
-25 23 -33 2 -8 13 -25 26 -37 12 -13 22 -30 22 -38 0 -8 4 -15 8 -15 5 0 15
-12 23 -27 8 -16 22 -37 32 -47 9 -11 17 -24 17 -29 0 -5 13 -22 30 -39 16
-16 30 -36 30 -44 0 -8 4 -14 8 -14 5 0 15 -12 23 -27 7 -16 30 -45 51 -65 20
-20 34 -38 32 -41 -2 -2 11 -21 31 -42 19 -22 35 -43 35 -47 0 -5 18 -27 40
-49 22 -22 40 -46 40 -52 0 -6 22 -32 50 -58 27 -25 47 -49 44 -51 -2 -3 29
-40 71 -83 41 -43 75 -82 75 -87 0 -13 362 -373 372 -370 5 1 7 -1 5 -5 -5 -9
89 -104 96 -97 3 3 41 -31 85 -75 44 -45 85 -81 91 -81 6 0 39 -29 74 -65 36
-35 67 -61 71 -58 3 4 12 0 19 -9 6 -8 27 -24 46 -34 19 -11 51 -36 72 -56 20
-21 42 -38 47 -38 6 0 24 -13 42 -30 18 -16 37 -30 44 -30 6 0 18 -9 26 -19 7
-11 16 -18 20 -16 3 2 23 -12 45 -31 22 -19 43 -34 47 -34 3 0 22 -15 41 -34
20 -19 45 -37 56 -41 12 -3 21 -11 21 -17 0 -6 3 -8 6 -5 7 7 59 -19 82 -41 8
-7 27 -19 43 -27 16 -9 29 -20 29 -26 0 -6 5 -9 12 -7 7 3 21 -5 33 -16 11
-12 27 -22 35 -24 8 -2 17 -8 18 -13 2 -5 7 -7 12 -4 4 2 20 -7 36 -20 16 -14
33 -25 38 -25 5 0 17 -9 27 -21 10 -11 23 -18 29 -14 5 3 13 -1 16 -10 6 -15
80 -52 95 -48 4 1 19 -9 33 -22 14 -13 26 -22 26 -19 0 3 15 -6 33 -19 17 -13
39 -23 47 -22 8 0 17 -2 20 -5 3 -3 24 -14 48 -24 23 -11 42 -24 42 -29 0 -6
3 -8 6 -4 4 3 22 -5 40 -20 19 -14 34 -22 34 -19 0 4 10 0 23 -8 12 -8 38 -17
57 -21 19 -4 45 -16 56 -27 12 -11 29 -20 37 -22 8 -1 22 -8 31 -15 9 -7 16
-10 16 -5 0 5 7 0 15 -10 8 -11 15 -17 15 -13 0 4 10 2 22 -5 13 -7 26 -11 31
-10 4 1 7 -3 7 -8 0 -6 11 -10 24 -10 14 0 31 -6 38 -12 15 -14 22 -17 82 -28
21 -4 42 -14 47 -21 5 -8 9 -11 9 -6 0 4 23 -4 50 -18 28 -14 50 -23 50 -20 0
3 17 -3 39 -14 21 -11 49 -21 62 -23 13 -2 35 -10 49 -18 14 -7 26 -13 28 -11
1 1 15 -5 30 -13 15 -8 51 -16 79 -18 28 -2 58 -10 67 -17 9 -7 16 -10 16 -5
0 5 7 0 15 -10 8 -11 15 -17 15 -13 0 4 8 3 18 -2 9 -5 31 -11 48 -14 17 -3
41 -10 53 -16 11 -7 21 -9 21 -6 0 3 18 -4 40 -15 21 -11 49 -20 60 -20 12 0
34 -7 50 -15 17 -9 30 -12 30 -8 0 4 5 2 12 -5 7 -7 34 -12 60 -12 27 0 62 -7
78 -15 17 -9 30 -13 30 -10 0 3 8 1 18 -4 11 -6 38 -11 61 -12 23 -2 45 -7 47
-11 3 -4 23 -8 44 -8 21 0 50 -4 65 -10 14 -5 39 -11 56 -12 17 -1 33 -6 35
-10 3 -4 27 -8 54 -8 27 0 52 -4 55 -10 3 -5 24 -10 46 -10 22 0 48 -4 57 -9
9 -5 42 -12 72 -16 257 -31 284 -34 395 -41 171 -10 1197 -15 1209 -5 6 5 60
10 121 10 60 1 114 6 120 10 5 4 39 9 75 10 36 2 67 6 70 10 3 4 36 9 75 10
38 1 74 6 80 10 5 4 28 9 50 10 22 2 48 7 57 12 9 5 36 9 61 9 24 0 47 3 50 7
4 4 26 8 49 10 23 3 50 9 59 14 10 5 33 9 53 9 19 0 38 5 41 10 4 6 10 8 15 5
5 -3 14 1 22 8 7 7 40 14 73 16 33 1 64 6 70 10 5 4 26 8 45 10 19 2 38 8 42
15 4 6 8 7 8 2 0 -5 7 -3 16 5 9 7 37 16 62 20 104 17 232 55 232 69 0 3 17 7
37 8 21 2 40 7 43 11 5 8 47 25 65 26 6 1 21 7 35 15 14 7 26 13 28 12 10 -7
43 1 56 14 9 9 31 18 49 20 17 3 42 7 54 9 13 3 26 5 29 4 4 0 10 4 14 10 3 6
16 13 27 15 11 3 39 14 62 25 22 12 41 19 41 15 0 -3 11 1 25 10 14 9 25 14
25 10 0 -3 11 1 25 10 14 9 25 13 25 9 0 -5 4 -2 8 5 5 7 18 14 29 16 11 3 39
14 61 25 22 11 42 17 46 14 3 -3 8 2 12 11 3 9 17 16 29 16 13 0 27 5 30 10 4
6 11 8 16 5 5 -4 19 4 32 17 13 13 34 25 48 27 13 1 26 6 29 10 3 3 16 7 30 9
14 2 30 10 36 17 6 8 17 15 25 17 8 2 23 12 34 23 11 11 33 21 49 22 16 1 46
14 67 28 21 13 44 26 51 27 6 2 21 13 32 24 21 22 156 88 156 77 0 -4 12 7 28
24 15 18 41 35 57 39 16 4 38 16 49 26 11 10 24 18 29 18 6 0 15 7 21 16 6 8
18 16 26 18 23 4 90 47 90 57 0 5 3 8 8 7 4 -1 17 3 30 10 12 7 22 10 22 7 0
-3 16 10 35 29 19 20 35 33 35 29 0 -3 16 7 35 21 19 15 35 24 35 20 0 -4 12
6 26 22 28 29 94 70 94 57 0 -4 14 7 30 26 17 18 37 34 44 35 8 1 32 20 54 43
22 23 43 39 46 36 3 -4 26 14 50 40 25 25 47 43 49 40 3 -2 20 9 38 26 17 17
36 31 41 31 5 0 47 38 94 84 46 45 86 81 88 78 9 -8 541 530 538 544 -2 8 3
14 11 14 8 0 41 26 75 59 47 45 58 61 49 70 -9 9 -9 12 -1 9 16 -4 64 53 64
75 0 10 4 16 8 13 10 -6 58 45 54 57 -1 5 1 6 6 3 9 -5 50 36 55 54 1 6 26 36
55 66 29 31 51 58 49 61 -3 2 12 21 34 42 21 21 40 45 41 52 2 8 11 21 20 30
9 8 18 22 20 30 2 8 11 20 21 27 9 7 17 19 17 26 0 8 13 27 29 42 16 16 31 36
33 44 2 8 11 21 21 28 9 7 17 19 17 26 0 8 7 19 15 26 9 7 23 28 31 46 9 19
20 34 25 34 5 0 9 6 9 13 0 6 11 25 25 41 13 16 22 33 19 37 -3 5 -1 9 5 9 5
0 13 10 17 23 4 12 15 28 26 35 10 7 16 18 12 23 -3 5 4 17 15 27 11 9 21 28
23 42 2 14 11 31 21 38 9 7 17 22 17 33 0 10 5 19 10 19 6 0 10 5 10 12 0 6 9
22 21 34 11 12 21 32 22 45 1 13 12 32 24 42 13 10 21 22 18 26 -2 5 3 17 13
27 9 10 23 31 31 47 8 15 18 27 23 27 4 0 8 13 8 28 0 32 23 84 45 102 8 7 15
23 15 36 0 13 9 32 20 42 11 10 21 30 22 45 1 15 8 27 14 27 11 0 28 47 24 65
0 3 6 13 15 21 8 9 13 19 10 24 -3 4 2 11 11 14 8 3 12 11 8 17 -3 6 -2 14 4
18 5 3 12 17 13 31 2 14 6 27 9 30 11 10 49 96 52 115 2 11 5 22 8 25 13 13
50 94 50 110 0 24 21 70 32 70 4 0 8 11 8 25 0 14 7 41 14 60 8 19 13 35 11
35 -3 0 4 16 15 35 11 20 20 47 20 61 0 13 7 36 16 49 9 14 12 25 8 25 -5 0
-3 4 4 8 7 5 13 25 14 45 1 20 4 37 8 37 4 0 10 8 13 18 4 9 13 35 21 57 9 22
16 52 16 67 0 15 5 30 10 33 5 3 10 26 10 50 0 24 5 47 10 50 6 3 10 26 10 50
0 24 5 47 10 50 6 3 10 17 10 30 0 13 4 26 9 29 8 5 12 20 27 114 4 20 10 42
15 48 5 6 10 30 11 53 1 23 5 44 10 47 4 3 8 20 8 39 0 19 5 37 10 40 6 3 10
22 10 41 0 20 4 43 9 53 6 10 11 45 12 80 1 34 6 64 11 67 4 3 8 52 8 109 0
58 4 107 10 110 6 3 10 39 10 79 0 39 4 76 9 81 6 6 11 38 12 73 1 35 6 65 11
68 11 7 10 1091 -1 1098 -5 3 -9 47 -10 98 -1 51 -6 97 -11 102 -6 6 -10 52
-10 102 0 51 -4 95 -9 98 -4 3 -9 43 -10 88 -1 45 -5 87 -10 92 -4 6 -9 29
-10 51 -2 22 -6 42 -9 45 -4 3 -8 25 -10 50 -2 25 -7 49 -11 55 -4 5 -9 28
-10 50 -1 22 -5 42 -9 45 -4 3 -9 21 -10 40 -2 19 -7 40 -11 45 -4 6 -9 28
-10 50 -1 22 -6 44 -11 49 -6 6 -10 20 -10 32 0 13 -4 25 -8 28 -4 2 -9 24
-11 48 -1 23 -5 45 -9 48 -4 3 -8 16 -10 30 -1 14 -7 27 -12 28 -6 2 -10 30
-10 62 0 32 -4 62 -10 65 -5 3 -10 17 -10 30 0 13 -4 27 -10 30 -5 3 -10 17
-10 30 0 13 -4 27 -10 30 -5 3 -10 16 -10 29 0 12 -3 26 -7 30 -4 3 -8 16 -10
29 -2 12 -8 26 -13 31 -6 6 -10 20 -10 32 0 13 -5 26 -10 29 -6 4 -8 11 -5 16
4 5 0 12 -8 15 -8 3 -14 20 -15 41 -1 20 -6 41 -12 47 -5 5 -10 20 -10 32 0
13 -4 26 -10 29 -5 3 -10 17 -10 30 0 13 -4 27 -10 30 -5 3 -10 17 -10 30 0
13 -4 27 -10 30 -5 3 -10 14 -10 25 0 10 -13 43 -29 73 -16 31 -27 58 -23 61
3 3 1 6 -5 6 -11 0 -32 45 -40 85 -2 11 -8 24 -13 29 -6 6 -10 17 -10 26 0 18
-120 262 -135 272 -5 4 -7 8 -3 8 5 0 -8 30 -27 66 -19 36 -35 74 -35 84 0 9
-7 23 -15 30 -8 7 -33 50 -55 96 -23 46 -45 86 -50 89 -4 3 -26 40 -47 83 -21
42 -45 85 -53 95 -8 10 -15 21 -15 25 0 4 -10 18 -22 32 -13 13 -23 30 -23 37
0 7 -4 13 -10 13 -5 0 -10 8 -10 19 0 10 -7 24 -15 31 -9 7 -23 29 -32 49 -10
20 -24 44 -33 54 -8 10 -15 21 -15 25 0 4 -15 23 -32 42 -18 19 -33 38 -33 42
0 4 -7 16 -15 25 -8 10 -15 22 -15 26 0 4 -15 24 -35 45 -19 20 -35 41 -35 45
0 4 -13 22 -30 40 -16 18 -30 37 -30 42 0 6 -14 23 -30 38 -17 16 -28 32 -26
35 2 4 -11 23 -30 42 -19 19 -34 39 -34 45 0 6 -17 27 -37 46 -21 19 -39 42
-41 50 -2 8 -21 31 -43 52 -22 21 -37 41 -35 45 3 4 -29 41 -70 82 -41 41 -74
78 -74 83 0 5 -139 148 -308 318 -203 203 -317 309 -333 312 -14 3 -57 37 -97
78 -40 39 -75 69 -78 66 -3 -3 -31 21 -63 54 -32 32 -62 59 -67 59 -5 0 -31
20 -57 45 -27 25 -53 43 -58 39 -5 -3 -9 -1 -9 5 0 5 -10 13 -22 16 -11 4 -37
24 -57 44 -20 20 -39 37 -43 36 -4 0 -17 8 -28 18 -11 9 -22 17 -25 17 -8 0
-100 65 -103 73 -2 4 -9 7 -16 7 -7 0 -21 8 -32 18 -10 9 -31 23 -46 31 -16 8
-28 18 -28 23 0 4 -4 8 -10 8 -8 0 -60 31 -95 57 -6 5 -17 9 -25 11 -8 2 -17
8 -18 13 -2 5 -24 18 -48 30 -25 11 -54 29 -65 40 -11 11 -24 17 -29 14 -6 -4
-10 -1 -10 4 0 6 -7 11 -15 11 -8 0 -23 9 -32 20 -10 11 -27 20 -38 20 -11 0
-32 10 -45 23 -14 12 -32 23 -40 25 -8 2 -16 7 -18 12 -2 5 -10 6 -18 3 -8 -3
-14 0 -14 6 0 6 -6 11 -14 11 -8 0 -22 7 -30 16 -9 8 -16 12 -16 9 0 -4 -11 0
-25 9 -14 9 -25 13 -25 9 0 -5 -5 -1 -10 8 -11 18 -115 72 -139 72 -9 0 -18 3
-21 6 -7 9 -64 35 -72 33 -5 -1 -8 2 -8 8 0 5 -9 10 -20 10 -11 0 -20 4 -20 9
0 5 -11 12 -25 15 -14 4 -25 11 -25 17 0 6 -5 7 -11 3 -6 -3 -14 -2 -18 4 -3
6 -18 13 -31 15 -35 7 -80 29 -80 39 0 5 -5 6 -11 2 -6 -3 -14 -1 -18 5 -4 6
-24 12 -45 13 -22 1 -41 8 -46 17 -5 9 -10 12 -10 7 0 -5 -6 -4 -13 2 -7 6
-25 13 -41 16 -15 3 -34 10 -42 17 -8 6 -14 8 -14 3 0 -5 -4 -4 -8 1 -10 14
-59 35 -82 35 -11 0 -20 4 -20 8 0 10 -70 37 -87 34 -7 -2 -13 1 -13 6 0 10
-30 18 -100 28 -19 3 -44 9 -55 13 -23 9 -86 31 -100 35 -14 4 -34 11 -75 25
-19 7 -42 13 -50 13 -8 1 -17 5 -20 9 -3 5 -21 9 -40 11 -19 1 -37 5 -40 9 -3
4 -16 9 -30 10 -14 2 -27 7 -30 11 -4 4 -27 8 -53 9 -26 1 -47 6 -47 11 0 4
-13 8 -30 8 -16 0 -30 5 -30 10 0 6 -27 10 -61 10 -33 0 -69 4 -79 10 -10 5
-32 11 -50 12 -17 1 -34 6 -36 10 -3 4 -22 8 -43 8 -20 0 -41 4 -46 9 -6 6
-30 11 -55 12 -25 2 -47 6 -50 10 -3 4 -34 10 -70 13 -142 13 -175 18 -185 27
-5 5 -112 9 -238 9 -125 0 -236 4 -246 9 -21 12 -343 17 -831 13z m2495 -7461
c3 -11 5 -36 3 -58 -2 -33 -13 -49 -79 -116 -103 -103 -119 -100 -119 25 0 42
5 80 10 83 6 3 10 17 10 30 0 51 7 55 90 55 69 0 79 -2 85 -19z m-177 -303
c-2 -17 -11 -24 -30 -26 -24 -3 -28 0 -28 22 0 22 4 26 31 26 26 0 30 -3 27
-22z m-40 -80 c-2 -17 -11 -24 -30 -26 -24 -3 -28 0 -28 22 0 22 4 26 31 26
26 0 30 -3 27 -22z m-40 -80 c-2 -17 -11 -24 -30 -26 -24 -3 -28 0 -28 22 0
22 4 26 31 26 26 0 30 -3 27 -22z m-40 -80 c-2 -17 -11 -24 -30 -26 -24 -3
-28 0 -28 22 0 22 4 26 31 26 26 0 30 -3 27 -22z"/>
</g>
</svg>
